<svg width="122" height="122" viewBox="0 0 122 122" fill="none" xmlns="http://www.w3.org/2000/svg">
<circle cx="60.5008" cy="60.5" r="60.5" fill="white"/>
<mask id="path-2-inside-1_1401_228" fill="white">
<path d="M25.2228 57.7662C25.2229 57.0887 25.3568 56.4179 25.6169 55.7924C25.877 55.1668 26.258 54.5988 26.7382 54.1209C27.2184 53.643 27.7883 53.2647 28.4151 53.0077C29.0419 52.7507 29.7133 52.62 30.3908 52.6231L38.9588 52.6511C40.3249 52.6511 41.6351 53.1938 42.6011 54.1598C43.5671 55.1258 44.1098 56.436 44.1098 57.8021V90.2022C45.0748 89.9162 46.3098 89.6111 47.6688 89.2911C48.6103 89.0696 49.4494 88.5366 50.05 87.7784C50.6506 87.0202 50.9776 86.0814 50.9778 85.1141V44.9271C50.9778 43.5609 51.5204 42.2506 52.4864 41.2845C53.4524 40.3183 54.7626 39.7754 56.1288 39.7751H64.7228C66.089 39.7754 67.3992 40.3183 68.3651 41.2845C69.3311 42.2506 69.8738 43.5609 69.8738 44.9271V82.2271C69.8738 82.2271 72.0238 81.3572 74.1168 80.4732C74.8945 80.1442 75.5582 79.5935 76.025 78.8898C76.4918 78.1861 76.7411 77.3606 76.7418 76.5162V32.0491C76.7418 30.6832 77.2843 29.3732 78.2501 28.4072C79.2159 27.4412 80.5258 26.8984 81.8918 26.8981H90.4768C91.842 26.8995 93.1509 27.4428 94.1158 28.4086C95.0808 29.3745 95.6228 30.6839 95.6228 32.0491V68.6661C103.066 63.2721 110.609 56.7841 116.595 48.9831C117.463 47.8508 118.038 46.5211 118.268 45.1126C118.497 43.7041 118.375 42.2607 117.911 40.9111C115.14 32.9393 110.735 25.6336 104.979 19.4617C99.2225 13.2898 92.241 8.38748 84.4813 5.06854C76.7216 1.74959 68.3544 0.0870782 59.9153 0.187389C51.4762 0.2877 43.1509 2.14862 35.4723 5.65107C27.7936 9.15352 20.9307 14.2204 15.3226 20.5274C9.71457 26.8344 5.48488 34.2427 2.90423 42.2782C0.323578 50.3137 -0.551199 58.7994 0.33587 67.1924C1.22294 75.5853 3.85232 83.7007 8.05576 91.0191C8.7881 92.2816 9.86553 93.3089 11.1615 93.9803C12.4574 94.6516 13.918 94.9392 15.3718 94.8092C16.9958 94.6662 19.0178 94.4641 21.4218 94.1821C22.468 94.0631 23.434 93.5634 24.1356 92.7782C24.8373 91.993 25.2257 90.9772 25.2268 89.9241V57.7662"/>
</mask>
<path d="M25.2228 57.7662C25.2229 57.0887 25.3568 56.4179 25.6169 55.7924C25.877 55.1668 26.258 54.5988 26.7382 54.1209C27.2184 53.643 27.7883 53.2647 28.4151 53.0077C29.0419 52.7507 29.7133 52.62 30.3908 52.6231L38.9588 52.6511C40.3249 52.6511 41.6351 53.1938 42.6011 54.1598C43.5671 55.1258 44.1098 56.436 44.1098 57.8021V90.2022C45.0748 89.9162 46.3098 89.6111 47.6688 89.2911C48.6103 89.0696 49.4494 88.5366 50.05 87.7784C50.6506 87.0202 50.9776 86.0814 50.9778 85.1141V44.9271C50.9778 43.5609 51.5204 42.2506 52.4864 41.2845C53.4524 40.3183 54.7626 39.7754 56.1288 39.7751H64.7228C66.089 39.7754 67.3992 40.3183 68.3651 41.2845C69.3311 42.2506 69.8738 43.5609 69.8738 44.9271V82.2271C69.8738 82.2271 72.0238 81.3572 74.1168 80.4732C74.8945 80.1442 75.5582 79.5935 76.025 78.8898C76.4918 78.1861 76.7411 77.3606 76.7418 76.5162V32.0491C76.7418 30.6832 77.2843 29.3732 78.2501 28.4072C79.2159 27.4412 80.5258 26.8984 81.8918 26.8981H90.4768C91.842 26.8995 93.1509 27.4428 94.1158 28.4086C95.0808 29.3745 95.6228 30.6839 95.6228 32.0491V68.6661C103.066 63.2721 110.609 56.7841 116.595 48.9831C117.463 47.8508 118.038 46.5211 118.268 45.1126C118.497 43.7041 118.375 42.2607 117.911 40.9111C115.14 32.9393 110.735 25.6336 104.979 19.4617C99.2225 13.2898 92.241 8.38748 84.4813 5.06854C76.7216 1.74959 68.3544 0.0870782 59.9153 0.187389C51.4762 0.2877 43.1509 2.14862 35.4723 5.65107C27.7936 9.15352 20.9307 14.2204 15.3226 20.5274C9.71457 26.8344 5.48488 34.2427 2.90423 42.2782C0.323578 50.3137 -0.551199 58.7994 0.33587 67.1924C1.22294 75.5853 3.85232 83.7007 8.05576 91.0191C8.7881 92.2816 9.86553 93.3089 11.1615 93.9803C12.4574 94.6516 13.918 94.9392 15.3718 94.8092C16.9958 94.6662 19.0178 94.4641 21.4218 94.1821C22.468 94.0631 23.434 93.5634 24.1356 92.7782C24.8373 91.993 25.2257 90.9772 25.2268 89.9241V57.7662" fill="#21325B"/>
<path d="M30.3908 52.6231L30.3861 53.6231L30.3875 53.6231L30.3908 52.6231ZM38.9588 52.6511L38.9555 53.6511H38.9588V52.6511ZM44.1098 90.2022H43.1098V91.5415L44.3939 91.1609L44.1098 90.2022ZM47.6688 89.2911L47.4397 88.3177L47.4396 88.3178L47.6688 89.2911ZM50.9778 85.1141L51.9778 85.1144V85.1141H50.9778ZM50.9778 44.9271L51.9778 44.9271V44.9271L50.9778 44.9271ZM56.1288 39.7751L56.1288 38.7751L56.1286 38.7751L56.1288 39.7751ZM64.7228 39.7751L64.723 38.7751H64.7228V39.7751ZM69.8738 44.9271L68.8738 44.9271V44.9271H69.8738ZM69.8738 82.2271H68.8738V83.7106L70.2489 83.1541L69.8738 82.2271ZM74.1168 80.4732L74.5058 81.3944L74.5063 81.3942L74.1168 80.4732ZM76.7418 76.5162L77.7418 76.5169V76.5162H76.7418ZM76.7418 32.0491L77.7418 32.0491V32.0491L76.7418 32.0491ZM81.8918 26.8981L81.8918 25.8981L81.8916 25.8981L81.8918 26.8981ZM90.4768 26.8981L90.4777 25.8981H90.4768V26.8981ZM95.6228 32.0491L94.6228 32.0491V32.0491H95.6228ZM95.6228 68.6661H94.6228V70.6258L96.2096 69.4759L95.6228 68.6661ZM116.595 48.9831L117.388 49.5919L117.388 49.5917L116.595 48.9831ZM117.911 40.9111L118.856 40.5861L118.855 40.5828L117.911 40.9111ZM8.05576 91.0191L7.18861 91.5172L7.19076 91.5209L8.05576 91.0191ZM15.3718 94.8092L15.284 93.813L15.2827 93.8131L15.3718 94.8092ZM21.4218 94.1821L21.3087 93.1885L21.3053 93.1889L21.4218 94.1821ZM25.2268 89.9241L26.2268 89.9252V89.9241H25.2268ZM26.2228 57.7663C26.2229 57.2206 26.3308 56.6802 26.5403 56.1763L24.6935 55.4085C24.3829 56.1556 24.2229 56.9568 24.2228 57.766L26.2228 57.7663ZM26.5403 56.1763C26.7498 55.6723 27.0568 55.2147 27.4436 54.8297L26.0329 53.4121C25.4593 53.9829 25.0042 54.6613 24.6935 55.4085L26.5403 56.1763ZM27.4436 54.8297C27.8305 54.4448 28.2896 54.14 28.7945 53.9329L28.0357 52.0825C27.287 52.3895 26.6064 52.8413 26.0329 53.4121L27.4436 54.8297ZM28.7945 53.9329C29.2995 53.7259 29.8403 53.6206 30.3861 53.6231L30.3954 51.6232C29.5863 51.6194 28.7844 51.7755 28.0357 52.0825L28.7945 53.9329ZM30.3875 53.6231L38.9555 53.6511L38.962 51.6511L30.394 51.6232L30.3875 53.6231ZM38.9588 53.6511C40.0597 53.6511 41.1155 54.0885 41.894 54.8669L43.3082 53.4527C42.1546 52.2992 40.5901 51.6511 38.9588 51.6511V53.6511ZM41.894 54.8669C42.6724 55.6454 43.1098 56.7012 43.1098 57.8021H45.1098C45.1098 56.1708 44.4617 54.6063 43.3082 53.4527L41.894 54.8669ZM43.1098 57.8021V90.2022H45.1098V57.8021H43.1098ZM44.3939 91.1609C45.3292 90.8837 46.5399 90.5843 47.898 90.2645L47.4396 88.3178C46.0796 88.638 44.8203 88.9486 43.8256 89.2434L44.3939 91.1609ZM47.8978 90.2646C49.0587 89.9914 50.0933 89.3342 50.8339 88.3993L49.2662 87.1574C48.8055 87.739 48.1619 88.1478 47.4397 88.3177L47.8978 90.2646ZM50.8339 88.3993C51.5744 87.4645 51.9775 86.307 51.9778 85.1144L49.9778 85.1139C49.9776 85.8558 49.7269 86.5759 49.2662 87.1574L50.8339 88.3993ZM51.9778 85.1141V44.9271H49.9778V85.1141H51.9778ZM51.9778 44.9271C51.9778 43.8261 52.4151 42.7701 53.1936 41.9915L51.7792 40.5774C50.6258 41.7311 49.9778 43.2957 49.9778 44.9271L51.9778 44.9271ZM53.1936 41.9915C53.9721 41.2129 55.0279 40.7754 56.129 40.7751L56.1286 38.7751C54.4972 38.7755 52.9327 39.4238 51.7792 40.5774L53.1936 41.9915ZM56.1288 40.7751H64.7228V38.7751H56.1288V40.7751ZM64.7226 40.7751C65.8236 40.7754 66.8795 41.2129 67.658 41.9915L69.0723 40.5774C67.9188 39.4238 66.3544 38.7755 64.723 38.7751L64.7226 40.7751ZM67.658 41.9915C68.4364 42.7701 68.8738 43.8261 68.8738 44.9271L70.8738 44.9271C70.8738 43.2957 70.2258 41.7311 69.0723 40.5774L67.658 41.9915ZM68.8738 44.9271V82.2271H70.8738V44.9271H68.8738ZM69.8738 82.2271C70.2489 83.1541 70.2489 83.1541 70.2489 83.1541C70.2489 83.1541 70.249 83.1541 70.249 83.1541C70.2491 83.1541 70.2492 83.154 70.2493 83.154C70.2496 83.1538 70.25 83.1537 70.2506 83.1535C70.2516 83.153 70.2532 83.1524 70.2553 83.1515C70.2595 83.1498 70.2658 83.1473 70.274 83.144C70.2904 83.1373 70.3147 83.1275 70.3463 83.1147C70.4095 83.089 70.502 83.0514 70.6195 83.0036C70.8545 82.9079 71.1895 82.7712 71.5901 82.6068C72.3909 82.2781 73.4551 81.8382 74.5058 81.3944L73.7277 79.5519C72.6854 79.9921 71.6281 80.4292 70.8307 80.7565C70.4321 80.9201 70.0989 81.0561 69.8653 81.1512C69.7486 81.1988 69.6568 81.236 69.5942 81.2614C69.5629 81.2741 69.539 81.2838 69.5229 81.2904C69.5148 81.2936 69.5087 81.2961 69.5047 81.2977C69.5026 81.2986 69.5011 81.2992 69.5001 81.2996C69.4996 81.2998 69.4992 81.2999 69.499 81.3C69.4989 81.3001 69.4988 81.3001 69.4987 81.3001C69.4987 81.3002 69.4987 81.3002 69.4987 81.3002C69.4987 81.3002 69.4987 81.3002 69.8738 82.2271ZM74.5063 81.3942C75.4649 80.9887 76.283 80.31 76.8583 79.4426L75.1917 78.337C74.8335 78.8771 74.3241 79.2997 73.7272 79.5521L74.5063 81.3942ZM76.8583 79.4426C77.4337 78.5753 77.7409 77.5577 77.7418 76.5169L75.7418 76.5154C75.7412 77.1635 75.55 77.797 75.1917 78.337L76.8583 79.4426ZM77.7418 76.5162V32.0491H75.7418V76.5162H77.7418ZM77.7418 32.0491C77.7418 30.9484 78.179 29.8927 78.9573 29.1142L77.5429 27.7002C76.3897 28.8536 75.7418 30.418 75.7418 32.0491L77.7418 32.0491ZM78.9573 29.1142C79.7356 28.3358 80.7912 27.8984 81.892 27.8981L81.8916 25.8981C80.2604 25.8985 78.6962 26.5467 77.5429 27.7002L78.9573 29.1142ZM81.8918 27.8981H90.4768V25.8981H81.8918V27.8981ZM90.4758 27.8981C91.576 27.8992 92.6308 28.337 93.4084 29.1154L94.8233 27.7018C93.671 26.5485 92.1081 25.8997 90.4777 25.8981L90.4758 27.8981ZM93.4084 29.1154C94.186 29.8937 94.6228 30.9489 94.6228 32.0491L96.6228 32.0491C96.6228 30.4188 95.9755 28.8552 94.8233 27.7018L93.4084 29.1154ZM94.6228 32.0491V68.6661H96.6228V32.0491H94.6228ZM96.2096 69.4759C103.696 64.0505 111.322 57.4975 117.388 49.5919L115.801 48.3744C109.896 56.0707 102.436 62.4937 95.036 67.8564L96.2096 69.4759ZM117.388 49.5917C118.357 48.3284 118.998 46.8449 119.255 45.2735L117.281 44.9517C117.078 46.1972 116.569 47.3732 115.801 48.3746L117.388 49.5917ZM119.255 45.2735C119.511 43.7021 119.374 42.0918 118.856 40.5861L116.965 41.2362C117.375 42.4297 117.484 43.7061 117.281 44.9517L119.255 45.2735ZM118.855 40.5828C116.039 32.4795 111.562 25.0534 105.71 18.7796L104.248 20.1438C109.909 26.2139 114.241 33.3991 116.966 41.2395L118.855 40.5828ZM105.71 18.7796C99.8588 12.5059 92.7623 7.52279 84.8746 4.14911L84.0881 5.98797C91.7198 9.25218 98.5861 14.0736 104.248 20.1438L105.71 18.7796ZM84.8746 4.14911C76.9869 0.775427 68.4817 -0.914506 59.9034 -0.81254L59.9272 1.18732C68.2271 1.08866 76.4563 2.72376 84.0881 5.98797L84.8746 4.14911ZM59.9034 -0.81254C51.3251 -0.710575 42.8626 1.18104 35.0573 4.74125L35.8873 6.5609C43.4393 3.11621 51.6272 1.28597 59.9272 1.18732L59.9034 -0.81254ZM35.0573 4.74125C27.252 8.30146 20.2759 13.4519 14.5753 19.8629L16.0699 21.1919C21.5855 14.9889 28.3353 10.0056 35.8873 6.5609L35.0573 4.74125ZM14.5753 19.8629C8.87478 26.2739 4.57534 33.8044 1.95213 41.9724L3.85633 42.5839C6.39443 34.681 10.5544 27.3949 16.0699 21.1919L14.5753 19.8629ZM1.95213 41.9724C-0.671085 50.1404 -1.56029 58.7661 -0.658591 67.2975L1.33033 67.0873C0.457891 58.8327 1.31824 50.4869 3.85633 42.5839L1.95213 41.9724ZM-0.658591 67.2975C0.243108 75.8289 2.91586 84.078 7.18862 91.5172L8.92291 90.5211C4.78879 83.3233 2.20277 75.3418 1.33033 67.0873L-0.658591 67.2975ZM7.19076 91.5209C8.01859 92.948 9.23654 94.1093 10.7015 94.8682L11.6215 93.0923C10.4945 92.5085 9.5576 91.6152 8.92077 90.5174L7.19076 91.5209ZM10.7015 94.8682C12.1664 95.6271 13.8175 95.9522 15.4608 95.8052L15.2827 93.8131C14.0185 93.9262 12.7484 93.6761 11.6215 93.0923L10.7015 94.8682ZM15.4595 95.8053C17.0931 95.6614 19.1247 95.4584 21.5383 95.1753L21.3053 93.1889C18.9108 93.4698 16.8984 93.6709 15.284 93.813L15.4595 95.8053ZM21.5348 95.1757C22.825 95.0289 24.0161 94.4128 24.8813 93.4445L23.39 92.1119C22.8519 92.714 22.1111 93.0972 21.3087 93.1885L21.5348 95.1757ZM24.8813 93.4445C25.7465 92.4763 26.2254 91.2237 26.2268 89.9252L24.2268 89.9231C24.2259 90.7307 23.9281 91.5097 23.39 92.1119L24.8813 93.4445ZM26.2268 89.9241V57.7662H24.2268V89.9241H26.2268Z" fill="white" mask="url(#path-2-inside-1_1401_228)"/>
<mask id="path-4-inside-2_1401_228" fill="white">
<path d="M25.0398 109.727C34.089 116.31 44.783 120.262 55.9386 121.145C67.0942 122.027 78.2765 119.807 88.2484 114.728C98.2202 109.65 106.593 101.912 112.44 92.3709C118.287 82.8296 121.381 71.8566 121.379 60.6662C121.379 59.2662 121.314 57.8882 121.221 56.5142C99.0578 89.5692 58.1358 105.022 25.0398 109.727"/>
</mask>
<path d="M25.0398 109.727C34.089 116.31 44.783 120.262 55.9386 121.145C67.0942 122.027 78.2765 119.807 88.2484 114.728C98.2202 109.65 106.593 101.912 112.44 92.3709C118.287 82.8296 121.381 71.8566 121.379 60.6662C121.379 59.2662 121.314 57.8882 121.221 56.5142C99.0578 89.5692 58.1358 105.022 25.0398 109.727" fill="#979695"/>
<path d="M121.379 60.6662L120.379 60.6662L120.379 60.6664L121.379 60.6662ZM121.221 56.5142L122.218 56.4466L122.021 53.5253L120.39 55.9573L121.221 56.5142ZM24.4515 110.536C33.6499 117.228 44.5202 121.244 55.8597 122.141L56.0175 120.148C45.0458 119.28 34.5281 115.393 25.6281 108.919L24.4515 110.536ZM55.8597 122.141C67.1992 123.039 78.5659 120.781 88.7022 115.619L87.7946 113.837C77.9871 118.832 66.9891 121.016 56.0175 120.148L55.8597 122.141ZM88.7022 115.619C98.8384 110.457 107.349 102.592 113.293 92.8934L111.587 91.8484C105.837 101.232 97.602 108.843 87.7946 113.837L88.7022 115.619ZM113.293 92.8934C119.236 83.1948 122.381 72.0409 122.379 60.666L120.379 60.6664C120.381 71.6723 117.338 82.4643 111.587 91.8484L113.293 92.8934ZM122.379 60.6662C122.379 59.2358 122.312 57.8336 122.218 56.4466L120.223 56.5817C120.315 57.9427 120.379 59.2966 120.379 60.6662H122.379ZM120.39 55.9573C98.455 88.6725 57.8682 104.05 24.899 108.737L25.1805 110.717C58.4034 105.994 99.6605 90.4658 122.051 57.0711L120.39 55.9573Z" fill="white" mask="url(#path-4-inside-2_1401_228)"/>
</svg>
